PathFileType	4	(X/Y/Z)	Patient4_TMGait_0pt4_03_left_13.trc.trc
DataRate	CameraRate	NumFrames	NumMarkers	Units	OrigDataRate	OrigDataStartFrame	OrigNumFrames
78.651685393258	78.651685393258	5	33	mm	78.651685393258	89	       141
Frame#	Time	Sacral			L.Shoulder			Chest			R.Shoulder			Neck			R.ASIS			L.ASIS			R.Thigh.Superior			R.Thigh.Lateral			R.Thigh.Inferior			R.Patella			L.Thigh.Superior			L.Thigh.Lateral			L.Thigh.Inferior			L.Patella			L.Shank.Superior			L.Shank.Lateral			L.Shank.Inferior			R.Shank.Superior			R.Shank.Lateral			R.Shank.Inferior			R.Heel			R.Midfoot.Superior			R.Midfoot.Lateral			R.Toe			L.Heel			L.Midfoot.Lateral			L.Midfoot.Superior			L.Toe			L.Elbow			L.Wrist			R.Elbow			R.Wrist			
		X1	Y1	Z1	X2	Y2	Z2	X3	Y3	Z3	X4	Y4	Z4	X5	Y5	Z5	X6	Y6	Z6	X7	Y7	Z7	X8	Y8	Z8	X9	Y9	Z9	X10	Y10	Z10	X11	Y11	Z11	X12	Y12	Z12	X13	Y13	Z13	X14	Y14	Z14	X15	Y15	Z15	X16	Y16	Z16	X17	Y17	Z17	X18	Y18	Z18	X19	Y19	Z19	X20	Y20	Z20	X21	Y21	Z21	X22	Y22	Z22	X23	Y23	Z23	X24	Y24	Z24	X25	Y25	Z25	X26	Y26	Z26	X27	Y27	Z27	X28	Y28	Z28	X29	Y29	Z29	X30	Y30	Z30	X31	Y31	Z31	X32	Y32	Z32	X33	Y33	Z33	

89	17.888857142857	838.833321557492	1002.327616176342	507.627352708011	1018.745341965048	1430.824025468587	326.337893937737	1120.375708208901	1362.655598371643	488.624710923295	1035.934159263120	1435.093623848156	662.514921885759	1001.519491163801	1493.487538799611	484.522914999827	1067.699566377730	941.764525654013	629.279732875926	1055.112054298080	959.047965307387	354.806496193990	1120.365443880405	745.405324995745	599.636389303422	1044.817931787936	632.011631866375	657.117934206849	1126.481965498572	585.696430317182	577.232156178117	1132.321989665288	497.736442293843	582.378686510474	1111.193592208144	749.138752803463	375.804147784594	1036.952900689273	632.243217017796	298.848002019883	1128.758999621959	552.578872984804	354.519489418057	1126.755682227832	467.586433864780	348.532821044571	1061.364454239065	405.924497826682	339.724566838282	923.642553002343	358.335617411751	286.849867937364	914.508902792786	228.872169437720	340.937501574457	1106.188610778533	407.318509811934	588.386298044379	1037.777791266599	301.368629460353	650.765787937786	1081.464126096410	208.144248298709	584.410246496831	951.492872559390	42.674552845178	553.197477290714	1122.475423159307	97.166825415999	587.156336142301	1035.671002719359	37.151222844897	627.172884216833	1243.706584287445	45.305472026654	613.223320863033	727.070177796406	150.672726208571	375.706889760893	787.664776197553	115.450078354610	292.628214173531	891.677609372627	131.275051251903	315.481899223247	978.461462724366	34.585233472978	278.766254341045	989.613785886554	1079.713001474775	209.987424059787	1141.101547693414	863.102748743568	206.856456509601	1002.266155471009	1090.833567697836	789.073038828988	1124.241060124034	859.633251290253	783.192941117671	
90	17.901571428571	838.882308667434	1002.749624414865	511.534769076281	1017.261592051659	1431.269530222108	329.085469293271	1120.556733518123	1362.924232427439	490.305922810502	1038.058395194632	1435.351597655011	665.104049492591	1001.806697306510	1493.867354500743	487.429303474642	1068.505080652890	942.045207592216	631.286765068148	1054.170038107884	959.403381041622	356.995422569672	1119.463827062434	744.909385042431	602.054658397648	1042.956957590797	631.940960586515	659.383096865970	1124.250221573430	585.153652107870	579.424820231312	1129.361332272499	497.150095165354	584.394473365107	1114.716427040028	752.775090463251	377.669137348686	1044.610177719216	634.512315122612	299.703462486058	1138.620536149178	556.969511949296	355.011922360615	1138.247272287488	471.172836371731	348.460100655095	1071.975710039173	408.887627697194	339.942720110020	932.922742621548	364.001336588549	287.785592326566	921.678308238749	234.541387602185	341.814726315009	1102.772662561109	406.921559323814	590.051998550003	1033.748900199886	301.088534845947	651.913978053800	1077.081960459634	207.953750261456	585.263347262116	946.331464724013	42.697835090792	553.378778778706	1117.390072886214	97.092096160742	587.511669983008	1030.527512569379	37.105806228764	627.373643009618	1238.580533697516	45.120153043923	613.416676969795	732.297726723962	161.145656805199	377.031055717713	791.969618434254	124.182503854661	293.861249994027	896.843982971240	136.623240705421	316.691335601090	980.515997966337	35.554817910781	279.863019134314	985.521231009881	1080.262658431266	213.054316569992	1133.232694314831	861.095792610740	206.783786145124	1008.038535585391	1091.339502884103	793.458452180853	1135.828980184692	863.538344497811	785.460898494003	
91	17.914285714286	838.807749449736	1003.218863388502	515.221822051719	1015.729363561058	1431.722543437347	331.686401071273	1120.680356275391	1363.171603713953	491.812681297767	1040.161285329407	1435.606159469019	667.518910134280	1002.073899589509	1494.265934853156	490.167943814327	1069.136348660298	942.302684807525	633.145373592906	1053.137443869199	959.778912998651	359.054409525295	1118.496382005996	744.459305865077	604.319577860320	1041.037690512677	631.902933759731	661.530256263200	1121.965508405652	584.643605836756	581.502921916193	1126.342692373555	496.599136633118	586.339576876707	1117.797901467325	756.528726279071	379.232987666360	1051.346114792532	637.123310602167	300.353566892468	1147.536233411244	561.707690506617	355.045220296204	1148.917084554514	475.261094978153	347.986030317807	1082.145720641057	412.214991813825	339.841845394039	942.074266545779	369.117370885780	288.549638083739	929.625151309724	239.604125425863	342.538422643072	1099.313997886437	406.565294938100	591.648696894375	1029.657234435390	300.854092533452	652.981595301627	1072.667045570691	207.795796610524	586.102903826080	941.155733560100	42.743047244007	553.558341602784	1112.297389090764	97.011153027476	587.867591747340	1025.359881431862	37.065149817561	627.569386010856	1233.431577725622	44.919850294399	613.597176106807	739.071447588302	169.398777680092	378.401962755553	798.021491479301	131.278912982350	295.093883507985	903.486025732495	141.424365773347	317.769612024034	984.995108196752	36.972322182567	280.770022288587	981.141311427383	1080.874124449811	215.913260848217	1124.969497449528	859.261414177454	206.513131928773	1014.013724749098	1091.871652824974	797.684495596026	1147.295426999772	867.485629899674	787.734902995888	
92	17.927000000000	838.632719386694	1003.743750374011	518.682887508956	1014.182665584779	1432.202031360967	334.156926098290	1120.751395346454	1363.419970678844	493.176544405632	1042.211308000261	1435.880284330782	669.768305791311	1002.320070762880	1494.696851441434	492.747597147971	1069.622958722149	942.553389532220	634.874608831569	1052.040137962925	960.218432390456	360.992856353512	1117.484529063058	744.062411235567	606.410442032123	1039.089894672821	631.905534723945	663.529214836511	1119.653557189720	584.175068397509	583.438807000903	1123.298978060958	496.090268698009	588.175789384865	1120.420532719204	760.354720144310	380.497962587191	1057.086146235612	640.004011763773	300.824692501995	1155.441235853211	566.694302358307	354.620356100978	1158.666089696649	479.765644917985	347.098829874021	1091.802822613387	415.822981816863	339.405139398783	951.045339064168	373.476435785952	289.111479415958	938.426544296547	243.822043595796	343.021957522564	1095.840561901123	406.254540193662	593.149615471438	1025.533977137021	300.680318475240	653.965749451386	1068.236013206736	207.674053562009	586.917875830304	935.983319935297	42.809657697438	553.742839378306	1107.214239620056	96.940890367675	588.221503508646	1020.185445018809	37.031641141817	627.760646155711	1228.276294452981	44.718434945055	613.767279403928	747.507444593343	174.994403887771	379.741673585488	805.947317941110	136.356187303222	296.219953564379	911.756953552390	145.398338947049	318.572744782203	992.154779453818	38.760842034371	281.290831662463	976.499755940887	1081.571436506794	218.600788509226	1116.309671430300	857.599880750984	206.064673945387	1020.187591361688	1092.437805720239	801.691918947211	1158.620325953671	871.446781287018	789.965577891269	
93	17.939714285714	838.383674477619	1004.324031902745	521.926014726812	1012.644213888211	1432.721095564801	336.515951617939	1120.771794525869	1363.687774487339	494.428285988204	1044.180853808474	1436.189559508953	671.865358066397	1002.539546819296	1495.166628402653	495.182301822076	1070.007023874503	942.814985506621	636.488577554313	1050.896254139212	960.757514915877	362.812007942394	1116.429948370957	743.717264717889	608.306745463760	1037.129854803342	631.951249196884	665.353354912079	1117.324256677689	583.752356623415	585.208497932708	1120.245617815502	495.626992656859	589.872066914042	1122.581456757419	764.199586717590	381.474573278420	1061.822393382682	643.062120711243	301.143763585614	1162.315680118141	571.812991817742	353.779523573758	1167.433841394065	484.582820405204	345.831508316086	1100.907107897507	419.612560861835	338.640542721382	959.818420473475	376.903164268725	289.450462293905	948.148474841488	247.007009966245	343.186489877439	1092.365426702802	405.989471287487	594.533408889536	1021.396456192508	300.575410734725	654.864481161272	1063.797299295269	207.588626415928	587.697905416066	930.826118380605	42.896528946123	553.935594484141	1102.151256854095	96.892779663504	588.570194041297	1015.016589945126	37.006619904326	627.946588398425	1223.126709527943	44.525866610860	613.930977579156	757.695444259531	177.653102005602	380.960326074713	815.825984485631	139.172683079964	297.119951103450	921.763585812428	148.322016099960	318.963917347942	1002.126707078088	40.804030827455	281.220645187848	971.636634602170	1082.374225807160	221.146705974554	1107.263984405201	856.106827939615	205.467388123065	1026.541566432775	1093.041453198652	805.429797874539	1169.796820181713	875.406249997805	792.092765794307	
